<?xml version="1.0" encoding="UTF-8" standalone="no"?>
<!-- Created with Inkscape (http://www.inkscape.org/) -->

<svg
   width="100"
   height="100"
   viewBox="0 0 26.458334 26.458334"
   version="1.1"
   id="svg1"
   xml:space="preserve"
   inkscape:version="1.3.2 (091e20e, 2023-11-25)"
   sodipodi:docname="cameraunlocked.svg"
   xmlns:inkscape="http://www.inkscape.org/namespaces/inkscape"
   xmlns:sodipodi="http://sodipodi.sourceforge.net/DTD/sodipodi-0.dtd"
   xmlns="http://www.w3.org/2000/svg"
   xmlns:svg="http://www.w3.org/2000/svg"><sodipodi:namedview
     id="namedview1"
     pagecolor="#a52a2a"
     bordercolor="#000000"
     borderopacity="0.25"
     inkscape:showpageshadow="2"
     inkscape:pageopacity="0.0"
     inkscape:pagecheckerboard="0"
     inkscape:deskcolor="#d1d1d1"
     inkscape:document-units="mm"
     showgrid="false"
     shape-rendering="auto"
     inkscape:zoom="1.0000001"
     inkscape:cx="-141.49999"
     inkscape:cy="70.499996"
     inkscape:window-width="1866"
     inkscape:window-height="1016"
     inkscape:window-x="54"
     inkscape:window-y="27"
     inkscape:window-maximized="1"
     inkscape:current-layer="layer1"><inkscape:grid
       id="grid1"
       units="px"
       originx="0"
       originy="0"
       spacingx="0.52916668"
       spacingy="0.52916668"
       empcolor="#0099e5"
       empopacity="0.30196078"
       color="#0099e5"
       opacity="0.14901961"
       empspacing="5"
       dotted="false"
       gridanglex="30"
       gridanglez="30"
       visible="false" /></sodipodi:namedview><defs
     id="defs1" /><g
     inkscape:groupmode="layer"
     id="layer2"
     inkscape:label="background"><rect
       style="fill:#a52a2a;fill-opacity:1;stroke:none;stroke-width:0.25;stroke-linecap:round;stroke-linejoin:round;stroke-dasharray:none;stroke-dashoffset:0"
       id="rect27"
       width="26.458332"
       height="26.458332"
       x="-1.1523355"
       y="46.881138"
       ry="4.4318528" /></g><g
     inkscape:label="Layer 1"
     inkscape:groupmode="layer"
     id="layer1"><path
       style="fill:#ffffff;fill-opacity:1;stroke:none;stroke-width:0.793999;stroke-linecap:round;stroke-linejoin:round;stroke-dasharray:none;stroke-dashoffset:0"
       d="m 6.3453507,-9.5301679 c -0.691046,1.6755675 -1.561736,3.3374728 -2.817916,4.9495687 0.809334,0.4935159 1.870888,0.5937622 2.822567,0.5937622 0.94908,0 2.007104,-0.098999 2.815848,-0.5885946 -1.437809,-1.8098514 -2.148019,-3.402076 -2.820499,-4.9547363 z"
       id="path10" /><path
       style="fill:none;fill-opacity:1;stroke:#767171;stroke-width:0.793999;stroke-linecap:round;stroke-linejoin:round;stroke-dasharray:none;stroke-dashoffset:0"
       d="m 3.5274347,-4.5805986 c 0.809334,0.493515 1.870888,0.593762 2.822567,0.593762 0.94908,0 2.007104,-0.099 2.815848,-0.588595"
       id="path12"
       sodipodi:nodetypes="csc" /><path
       style="fill:none;fill-opacity:1;stroke:#767171;stroke-width:0.793999;stroke-linecap:round;stroke-linejoin:round;stroke-dasharray:none;stroke-dashoffset:0"
       d="m 1.0583349,-2.4954555 c 2.7564728,-2.521417 4.2634318,-5.1994554 5.2916668,-7.9374995 1.057782,2.4305463 1.946633,4.8095872 5.2916673,7.9375005"
       id="path4"
       sodipodi:nodetypes="ccc" /><path
       id="path13"
       style="fill:#000000;fill-opacity:1;stroke:#000000;stroke-width:0.5;stroke-linecap:round;stroke-linejoin:round;stroke-dasharray:none;stroke-dashoffset:0"
       d="m 6.3500017,-6.1996218 c -0.438376,-1e-7 -0.79375,0.7107479 -0.79375,1.5875 1.3e-5,0.065995 0.0021,0.1319244 0.0062,0.1974039 0.262462,0.021877 0.527467,0.031006 0.787032,0.031006 0.25984,0 0.525181,-0.00859 0.788065,-0.030489 0.0041,-0.065651 0.0062,-0.1317531 0.0062,-0.1979207 0,-0.8767521 -0.355374,-1.5875001 -0.79375,-1.5875 z"
       sodipodi:nodetypes="sccsccs" /><path
       id="ellipse26"
       style="fill:#848484;fill-opacity:1;stroke-width:0.25;stroke-linecap:round;stroke-linejoin:round"
       d="m -35.454167,15.875001 c -0.02743,0.108677 0,0.947293 0,1.058334 -1e-6,2.14317 5.212158,3.880383 11.641667,3.880383 6.429508,0 11.641667,-1.737213 11.641666,-3.880383 0,-0.09252 0.01911,-0.967434 0,-1.058334 -2.84e-4,2.143105 -5.212352,3.880384 -11.641666,3.880384 -6.429314,0 -11.641382,-1.737279 -11.641667,-3.880384 z"
       sodipodi:nodetypes="cssscsc" /><ellipse
       style="fill:#ffffff;fill-opacity:1;stroke:none;stroke-width:0.25;stroke-linecap:round;stroke-linejoin:round;stroke-dasharray:none;stroke-dashoffset:0"
       id="path26"
       cx="-23.8125"
       cy="15.875002"
       rx="11.641666"
       ry="3.8805556" /><path
       id="path26-5"
       style="fill:#ffffff;fill-opacity:1;stroke:#ffffff;stroke-width:0.102865;stroke-linecap:round;stroke-linejoin:round;stroke-dasharray:none;stroke-dashoffset:0"
       d="m -36.540903,-18.957254 v 14.9491514 h 4.676179 l -3.085868,4.75655195 h 0.0082 c -0.04829,0.08849 -0.07407,0.178192 -0.07705,0.26813305 -0.0013,0.882192 2.143872,1.59757 4.790451,1.597501 2.64658,6.9e-5 4.791791,-0.715309 4.790452,-1.597501 -2.67e-4,-0.0898701 -0.02329,-0.17956105 -0.06883,-0.26813305 -0.0019,-0.0041 -0.0041,-0.0083 -0.0061,-0.01241 l -3.079642,-4.74413395 h 4.676179 V -18.957254 Z"
       sodipodi:nodetypes="cccccccccccccc" /><ellipse
       style="fill:#a52a2a;fill-opacity:1;stroke:none;stroke-width:1.56778;stroke-linecap:round;stroke-linejoin:round;stroke-dasharray:none"
       id="path1"
       cx="-28.252712"
       cy="-7.9833879"
       rx="1.6592412"
       ry="1.6592407" /><path
       style="fill:#ff0000;fill-opacity:1;stroke:#000000;stroke-width:0.9;stroke-linecap:round;stroke-linejoin:round;stroke-dasharray:0, 1.35;stroke-dashoffset:0;stroke-opacity:1"
       d="M -23.8125,15.875001 V 9.6810626"
       id="path2"
       sodipodi:nodetypes="cc" /><path
       style="fill:none;fill-opacity:1;stroke:#000000;stroke-width:0.942727;stroke-linecap:round;stroke-linejoin:round;stroke-dasharray:none;stroke-dashoffset:0;stroke-opacity:1"
       d="m -27.888016,37.827158 c 0,0 -6.355389,-4.497332 -10.012526,-4.485795 -3.606421,0.01138 -9.845572,4.485796 -9.845572,4.485796"
       id="path14"
       sodipodi:nodetypes="cac" /><path
       style="fill:none;fill-opacity:1;stroke:#000000;stroke-width:0.942727;stroke-linecap:round;stroke-linejoin:round;stroke-dasharray:none;stroke-dashoffset:0;stroke-opacity:1"
       d="m -27.888016,37.827158 c 0,0 -6.355389,4.497333 -10.012526,4.485796 -3.606421,-0.01138 -9.845572,-4.485795 -9.845572,-4.485795"
       id="path15"
       sodipodi:nodetypes="cac" /><path
       id="path17"
       style="fill:#ffffff;fill-opacity:1;stroke:none;stroke-width:1.71049;stroke-linecap:round;stroke-linejoin:round;stroke-dasharray:none;stroke-dashoffset:0;stroke-opacity:1"
       d="M 8.4687621,2.2144749 A 24.433063,16.737198 0 0 0 -12.691508,10.583325 24.433063,16.737198 0 0 0 8.4687621,18.952178 24.433063,16.737198 0 0 0 29.624833,10.587049 24.433063,16.737198 0 0 0 8.4687621,2.2144749 Z" /><ellipse
       style="fill:#767171;fill-opacity:1;stroke:none;stroke-width:2.74083;stroke-linecap:round;stroke-linejoin:round;stroke-dasharray:none;stroke-dashoffset:0;stroke-opacity:1"
       id="path18"
       cx="8.46667"
       cy="10.583336"
       rx="6.0668831"
       ry="6.0668845" /><ellipse
       style="fill:#000000;fill-opacity:1;stroke:none;stroke-width:1.28872;stroke-linecap:round;stroke-linejoin:round;stroke-dasharray:none;stroke-dashoffset:0;stroke-opacity:1"
       id="ellipse18"
       cx="8.46667"
       cy="10.583336"
       rx="2.8526213"
       ry="2.8526223" /><g
       id="rect5"
       style="fill:#14b717;fill-opacity:1"><path
         style="color:#000000;fill:#14b717;stroke-linecap:round;stroke-linejoin:round;-inkscape-stroke:none;fill-opacity:1"
         d="M 14.947367,16.452869 H 23.7961 v 7.164701 h -8.848733 z"
         id="path19" /><path
         style="color:#000000;fill:#14b717;stroke-linecap:round;stroke-linejoin:round;-inkscape-stroke:none;fill-opacity:1"
         d="m 14.947266,15.328125 c -0.621311,2.3e-5 -1.124977,0.503689 -1.125,1.125 v 7.164062 c 2.3e-5,0.621311 0.503689,1.124977 1.125,1.125 h 8.849609 c 0.621311,-2.3e-5 1.124977,-0.503689 1.125,-1.125 v -7.164062 c -2.3e-5,-0.621311 -0.503689,-1.124977 -1.125,-1.125 z"
         id="path20"
         sodipodi:nodetypes="ccccccccc" /></g><path
       style="fill:none;fill-opacity:1;stroke:#14b717;stroke-width:2.64633;stroke-linecap:round;stroke-linejoin:round;stroke-dasharray:none;stroke-dashoffset:0;stroke-opacity:1"
       d="m 16.519159,10.715076 c 0,-0.7277557 0.320897,-1.5024754 0.835496,-2.0170761 0.514602,-0.5146007 1.289323,-0.8354984 2.017078,-0.8354984 0.727755,0 1.502473,0.3208997 2.017074,0.8354994 0.514602,0.5146027 0.835498,1.2893194 0.835498,2.0170751 v 5.861462"
       id="path9"
       sodipodi:nodetypes="csscsc" /><rect
       style="fill:#d6d6d6;fill-opacity:1;stroke:none;stroke-width:2.28529;stroke-linecap:butt;stroke-linejoin:round;stroke-dasharray:none;stroke-dashoffset:0;stroke-opacity:1"
       id="rect20"
       width="14.614823"
       height="37.621254"
       x="-74.960335"
       y="-6.917942" /><rect
       style="fill:#d6d6d6;fill-opacity:1;stroke:none;stroke-width:2.28529;stroke-linecap:butt;stroke-linejoin:round;stroke-dasharray:none;stroke-dashoffset:0;stroke-opacity:1"
       id="rect20-3"
       width="14.614823"
       height="37.621254"
       x="51.805305"
       y="-5.3269701" /></g></svg>
