<?xml version="1.0" encoding="UTF-8" standalone="no"?>
<svg xmlns="http://www.w3.org/2000/svg" version="1.1" viewBox="0 0 700 600">
<g style="fill:none;stroke:#c0c0c0;stroke-width:2">
<path d="m 31.2,575 0,-549.9"/>
<path d="m 73.7,575 0,-549.9"/>
<path d="m 116.2,575 0,-549.9"/>
<path d="m 158.7,575 0,-549.9"/>
<path d="m 201.2,575 0,-549.9"/>
<path d="m 243.7,575 0,-549.9"/>
<path d="m 286.2,575 0,-549.9"/>
<path d="m 328.7,575 0,-549.9"/>
<path d="m 371.1,575 0,-549.9"/>
<path d="m 413.6,575 0,-549.9"/>
<path d="m 456.1,575 0,-549.9"/>
<path d="m 498.6,575 0,-549.9"/>
<path d="m 541.1,575 0,-549.9"/>
<path d="m 583.6,575 0,-549.9"/>
<path d="m 626.1,575 0,-549.9"/>
<path d="m 668.6,575 0,-549.9"/>
<path d="m 31.2,575 637.4,0"/>
<path d="m 31.2,529.2 637.4,0"/>
<path d="m 31.2,483.3 637.4,0"/>
<path d="m 31.2,437.5 637.4,0"/>
<path d="m 31.2,391.7 637.4,0"/>
<path d="m 31.2,345.9 637.4,0"/>
<path d="m 31.2,300 637.4,0"/>
<path d="m 31.2,254.2 637.4,0"/>
<path d="m 31.2,208.4 637.4,0"/>
<path d="m 31.2,162.6 637.4,0"/>
<path d="m 31.2,116.7 637.4,0"/>
<path d="m 31.2,70.9 637.4,0"/>
<path d="m 31.2,25.1 637.4,0"/>
</g>
<g fill="#000" font-family="sans-serif" font-size="18pt">
<text x="103.7" y="581.70001" style="text-anchor:end">
<tspan>-18</tspan>
</text>
<text x="103.7" y="490" style="text-anchor:end">
<tspan>-12</tspan>
</text>
<text x="103.7" y="398.39999" style="text-anchor:end">
<tspan>-6</tspan>
</text>
<text x="103.7" y="215.10001" style="text-anchor:end">
<tspan>6</tspan>
</text>
<text x="103.7" y="123.4" style="text-anchor:end">
<tspan>12</tspan>
</text>
<text x="103.7" y="31.799999" style="text-anchor:end">
<tspan>18</tspan>
</text>
<text x="243.7" y="338.10001" style="text-anchor:middle">
<tspan>90</tspan>
</text>
<text x="371.10001" y="338.10001" style="text-anchor:middle">
<tspan>180</tspan>
</text>
<text x="498.60001" y="338.10001" style="text-anchor:middle">
<tspan>270</tspan>
</text>
<text x="626.09998" y="338.10001" style="text-anchor:middle">
<tspan>360</tspan>
</text>
<text x="-192.10001" y="149.39999" transform="rotate(-90)" style="text-anchor:middle">
<tspan>Minutes</tspan>
</text>
<text x="549.90002" y="379.29999" style="text-anchor:middle">
<tspan>Day of year</tspan>
</text>
</g>
<path d="m 31.2,300 637.4,0 m -552.4,275 0,-549.9" style="fill:none;stroke:#000;stroke-width:3"/>
<path d="m 31.2,48.9 1.3,0.3 1.3,0.5 1.2,0.7 1.3,0.8 1.3,1 1.3,1.2 1.2,1.3 1.3,1.5 1.3,1.7 1.3,1.8 1.3,2 1.2,2.2 1.3,2.3 1.3,2.5 1.3,2.7 1.2,2.8 1.3,2.9 1.3,3.1 1.3,3.3 1.2,3.4 1.3,3.6 1.3,3.7 1.3,3.9 1.3,4 1.2,4.1 1.3,4.3 1.3,4.4 1.3,4.5 1.2,4.7 1.3,4.8 1.3,4.9 1.3,5 1.3,5.1 1.2,5.2 1.3,5.4 1.3,5.4 1.3,5.5 1.2,5.6 1.3,5.8 1.3,5.7 1.3,5.9 1.2,5.9 1.3,6 1.3,6.1 1.3,6.1 1.3,6.2 1.2,6.3 1.3,6.2 1.3,6.4 1.3,6.3 1.2,6.4 1.3,6.4 1.3,6.4 1.3,6.5 1.3,6.5 1.2,6.4 1.3,6.5 1.3,6.5 1.3,6.4 1.2,6.5 1.3,6.4 1.3,6.4 1.3,6.4 1.3,6.3 1.2,6.3 1.3,6.3 1.3,6.2 1.3,6.1 1.2,6.2 1.3,6 1.3,6 1.3,5.9 1.2,5.8 1.3,5.8 1.3,5.6 1.3,5.6 1.3,5.5 1.2,5.4 1.3,5.3 1.3,5.2 1.3,5.1 1.2,5 1.3,4.9 1.3,4.7 1.3,4.7 1.3,4.5 1.2,4.3 1.3,4.3 1.3,4.1 1.3,4 1.2,3.8 1.3,3.7 1.3,3.6 1.3,3.4 1.2,3.3 1.3,3.1 1.3,3 1.3,2.8 1.3,2.7 1.2,2.5 1.3,2.3 1.3,2.2 1.3,2.1 1.2,1.8 1.3,1.7 1.3,1.6 1.3,1.4 1.3,1.2 1.2,1.1 1.3,0.9 1.3,0.8 1.3,0.6 1.2,0.4 1.3,0.2 1.3,0.2 1.3,-0.1 1.3,-0.2 1.2,-0.4 1.3,-0.5 1.3,-0.7 1.3,-0.8 1.2,-0.9 1.3,-1.2 1.3,-1.2 1.3,-1.4 1.2,-1.6 1.3,-1.7 1.3,-1.8 1.3,-2 1.3,-2.1 1.2,-2.2 1.3,-2.4 1.3,-2.4 1.3,-2.6 1.2,-2.8 1.3,-2.8 1.3,-2.9 1.3,-3.1 1.3,-3.1 1.2,-3.3 1.3,-3.3 1.3,-3.5 1.3,-3.5 1.2,-3.6 1.3,-3.7 1.3,-3.7 1.3,-3.9 1.2,-3.9 1.3,-4 1.3,-4 1.3,-4.1 1.3,-4.1 1.2,-4.2 1.3,-4.2 1.3,-4.3 1.3,-4.3 1.2,-4.3 1.3,-4.4 1.3,-4.4 1.3,-4.4 1.3,-4.4 1.2,-4.4 1.3,-4.4 1.3,-4.4 1.3,-4.4 1.2,-4.4 1.3,-4.4 1.3,-4.3 1.3,-4.4 1.3,-4.3 1.2,-4.2 1.3,-4.3 1.3,-4.2 1.3,-4.2 1.2,-4.1 1.3,-4 1.3,-4 1.3,-4 1.2,-3.9 1.3,-3.8 1.3,-3.7 1.3,-3.7 1.3,-3.6 1.2,-3.5 1.3,-3.5 1.3,-3.3 1.3,-3.3 1.2,-3.1 1.3,-3.1 1.3,-3 1.3,-2.9 1.3,-2.8 1.2,-2.7 1.3,-2.5 1.3,-2.5 1.3,-2.3 1.2,-2.3 1.3,-2.1 1.3,-2 1.3,-1.9 1.2,-1.8 1.3,-1.7 1.3,-1.5 1.3,-1.5 1.3,-1.3 1.2,-1.2 1.3,-1 1.3,-1 1.3,-0.8 1.2,-0.7 1.3,-0.6 1.3,-0.4 1.3,-0.4 1.3,-0.2 1.2,-0.1 1.3,0.1 1.3,0.1 1.3,0.3 1.2,0.3 1.3,0.5 1.3,0.6 1.3,0.8 1.3,0.8 1.2,0.9 1.3,1.1 1.3,1.1 1.3,1.3 1.2,1.3 1.3,1.5 1.3,1.5 1.3,1.7 1.2,1.7 1.3,1.8 1.3,1.9 1.3,2 1.3,2.1 1.2,2.1 1.3,2.2 1.3,2.3 1.3,2.3 1.2,2.5 1.3,2.4 1.3,2.6 1.3,2.5 1.3,2.7 1.2,2.6 1.3,2.7 1.3,2.8 1.3,2.8 1.2,2.8 1.3,2.8 1.3,2.9 1.3,2.8 1.2,2.9 1.3,2.9 1.3,2.9 1.3,2.9 1.3,2.9 1.2,2.9 1.3,2.9 1.3,2.8 1.3,2.9 1.2,2.8 1.3,2.8 1.3,2.7 1.3,2.8 1.3,2.6 1.2,2.7 1.3,2.6 1.3,2.5 1.3,2.5 1.2,2.4 1.3,2.4 1.3,2.3 1.3,2.2 1.2,2.2 1.3,2.1 1.3,2 1.3,1.9 1.3,1.8 1.2,1.7 1.3,1.7 1.3,1.6 1.3,1.4 1.2,1.4 1.3,1.2 1.3,1.2 1.3,1 1.3,1 1.2,0.8 1.3,0.7 1.3,0.6 1.3,0.4 1.2,0.4 1.3,0.2 1.3,0.1 1.3,0 1.3,-0.1 1.2,-0.3 1.3,-0.4 1.3,-0.5 1.3,-0.7 1.2,-0.8 1.3,-0.9 1.3,-1 1.3,-1.2 1.2,-1.3 1.3,-1.4 1.3,-1.6 1.3,-1.7 1.3,-1.8 1.2,-1.9 1.3,-2.1 1.3,-2.2 1.3,-2.3 1.2,-2.5 1.3,-2.6 1.3,-2.7 1.3,-2.8 1.3,-2.9 1.2,-3 1.3,-3.2 1.3,-3.3 1.3,-3.4 1.2,-3.5 1.3,-3.5 1.3,-3.7 1.3,-3.8 1.2,-3.9 1.3,-4 1.3,-4.1 1.3,-4.1 1.3,-4.3 1.2,-4.3 1.3,-4.4 1.3,-4.5 1.3,-4.6 1.2,-4.6 1.3,-4.6 1.3,-4.8 1.3,-4.8 1.3,-4.8 1.2,-4.9 1.3,-4.9 1.3,-5 1.3,-5 1.2,-5 1.3,-5.1 1.3,-5.1 1.3,-5.1 1.3,-5.1 1.2,-5.1 1.3,-5.1 1.3,-5.1 1.3,-5.2 1.2,-5.1 1.3,-5 1.3,-5.1 1.3,-5.1 1.2,-5 1.3,-4.9 1.3,-5 1.3,-4.9 1.3,-4.8 1.2,-4.8 1.3,-4.8 1.3,-4.7 1.3,-4.6 1.2,-4.5 1.3,-4.5 1.3,-4.4 1.3,-4.3 1.3,-4.2 1.2,-4.2 1.3,-4 1.3,-4 1.3,-3.8 1.2,-3.7 1.3,-3.7 1.3,-3.5 1.3,-3.4 1.2,-3.3 1.3,-3.1 1.3,-3 1.3,-2.9 1.3,-2.8 1.2,-2.6 1.3,-2.5 1.3,-2.3 1.3,-2.2 1.2,-2.1 1.3,-1.9 1.3,-1.7 1.3,-1.6 1.3,-1.5 1.2,-1.2 1.3,-1.2 1.3,-0.9 1.3,-0.8 1.2,-0.7 1.3,-0.4 1.3,-0.3 1.3,-0.2 1.3,0.1 1.2,0.2 1.3,0.3 1.3,0.6 1.3,0.7 1.2,0.8 1.3,1.1 1.3,1.2 1.3,1.4 1.2,1.5 1.3,1.7 1.3,1.9 1.3,2.1 1.3,2.2 1.2,2.3 1.3,2.6 1.3,2.7 1.3,2.8 1.2,3 1.3,3.2 1.3,3.3 1.3,3.4 1.3,3.7 1.2,3.7 1.3,3.9 1.3,4 1.3,4.2 1.2,4.3 1.3,4.5 1.3,4.5 1.3,4.7 1.2,4.8 1.3,5 1.3,5 1.3,5.1 1.3,5.3 1.2,5.4 1.3,5.4 1.3,5.6 1.3,5.6 1.2,5.7 1.3,5.8 1.3,5.9 1.3,6 1.3,6 1.2,6.1 1.3,6.1 1.3,6.2 1.3,6.3 1.2,6.2 1.3,6.4 1.3,6.3 1.3,6.4 1.3,6.5 1.2,6.4 1.3,6.4 1.3,6.5 1.3,6.5 1.2,6.4 1.3,6.5 1.3,6.5 1.3,6.4 1.2,6.4 1.3,6.4 1.3,6.4 1.3,6.3 1.3,6.3 1.2,6.3 1.3,6.2 1.3,6.1 1.3,6.1 1.2,6 1.3,6 1.3,5.9 1.3,5.8 1.3,5.7 1.2,5.7 1.3,5.5 1.3,5.5 1.3,5.4 1.2,5.3 1.3,5.1 1.3,5.1 1.3,5 1.2,4.8 1.3,4.7 1.3,4.6 1.3,4.5 1.3,4.3 1.2,4.3 1.3,4 1.3,4 1.3,3.8 1.2,3.7 1.3,3.5 1.3,3.4" style="fill:none;stroke:#0000ff;stroke-width:4"/>
</svg> 